<svg width="18" height="16" viewBox="0 0 18 16" fill="none" xmlns="http://www.w3.org/2000/svg">
<path d="M16.5575 8.55874H1.09866C0.862944 8.55874 0.649788 8.41387 0.559538 8.1924C0.469288 7.97034 0.519163 7.71502 0.686007 7.54521L7.68573 0.420211C7.91373 0.188055 8.28244 0.188055 8.51044 0.420211C8.73844 0.652367 8.73844 1.02762 8.51044 1.25977L2.50704 7.37124H16.5569C16.8799 7.37124 17.1406 7.63724 17.1406 7.96499C17.1406 8.29274 16.8799 8.55874 16.5575 8.55874Z" fill="#252525"/>
<path d="M8.09898 15.6837C7.94995 15.6837 7.80032 15.6256 7.68632 15.5098L3.01945 10.7598C2.79145 10.5276 2.79145 10.1524 3.01945 9.92021C3.24745 9.68805 3.61617 9.68805 3.84417 9.92021L8.51104 14.6702C8.73904 14.9024 8.73904 15.2776 8.51104 15.5098C8.39764 15.6256 8.24801 15.6837 8.09898 15.6837Z" fill="#252525"/>
</svg>
