<svg width="18" height="16" viewBox="0 0 18 16" fill="none" xmlns="http://www.w3.org/2000/svg">
<path d="M1.09868 8.55874H16.5576C16.7933 8.55874 17.0064 8.41387 17.0967 8.1924C17.1869 7.97034 17.1371 7.71502 16.9702 7.54521L9.97049 0.420211C9.74249 0.188055 9.37378 0.188055 9.14578 0.420211C8.91778 0.652367 8.91778 1.02762 9.14578 1.25977L15.1492 7.37124H1.09927C0.776274 7.37124 0.515619 7.63724 0.515619 7.96499C0.515619 8.29274 0.776276 8.55874 1.09868 8.55874Z" fill="#252525"/>
<path d="M9.55724 15.6837C9.70627 15.6837 9.8559 15.6256 9.96989 15.5098L14.6368 10.7598C14.8648 10.5276 14.8648 10.1524 14.6368 9.92021C14.4088 9.68805 14.0401 9.68805 13.8121 9.92021L9.14518 14.6702C8.91718 14.9024 8.91718 15.2776 9.14518 15.5098C9.25858 15.6256 9.40821 15.6837 9.55724 15.6837Z" fill="#252525"/>
</svg>
