<svg width="21" height="18" viewBox="0 0 21 18" fill="none" xmlns="http://www.w3.org/2000/svg">
<path d="M10.4834 17.6899C10.1438 17.6941 9.80681 17.6306 9.49204 17.5031C9.17727 17.3756 8.89105 17.1867 8.65006 16.9474L2.27923 10.5308C1.52137 9.79001 0.97039 8.86395 0.680953 7.84449C0.391515 6.82503 0.373684 5.7476 0.629229 4.71911C0.900255 3.7255 1.42194 2.81815 2.14428 2.08402C2.86663 1.34989 3.76542 0.813589 4.75452 0.52652C5.74362 0.239451 6.78987 0.211234 7.79301 0.444573C8.79614 0.677913 9.72253 1.16499 10.4834 1.85911C11.2443 1.16499 12.1707 0.677913 13.1738 0.444573C14.1769 0.211234 15.2232 0.239451 16.2123 0.52652C17.2014 0.813589 18.1002 1.34989 18.8225 2.08402C19.5449 2.81815 20.0665 3.7255 20.3376 4.71911C20.5983 5.75672 20.5804 6.84476 20.2859 7.87327C19.9913 8.90178 19.4305 9.83431 18.6601 10.5766L12.2434 16.9933C11.7674 17.442 11.1376 17.6914 10.4834 17.6899ZM6.42256 1.66661C5.43087 1.66661 4.46592 1.98826 3.67256 2.58328C2.8337 3.19871 2.22919 4.08124 1.9584 5.08578C1.7609 5.88857 1.77896 6.72928 2.01076 7.52285C2.24255 8.31642 2.67984 9.03467 3.2784 9.60495L9.69506 16.0216C9.91666 16.2422 10.2166 16.366 10.5292 16.366C10.8419 16.366 11.1418 16.2422 11.3634 16.0216L17.7801 9.65078C18.3712 9.06518 18.7963 8.33323 19.0121 7.52963C19.2279 6.72603 19.2266 5.87955 19.0084 5.07661C18.7381 4.07672 18.1371 3.19786 17.3034 2.58328C16.3561 1.89073 15.1833 1.57897 14.0172 1.70967C12.851 1.84038 11.7764 2.40403 11.0059 3.28911C10.9377 3.3584 10.8563 3.41343 10.7666 3.45099C10.6769 3.48855 10.5806 3.50789 10.4834 3.50789C10.3861 3.50789 10.2899 3.48855 10.2002 3.45099C10.1105 3.41343 10.0291 3.3584 9.9609 3.28911C9.52269 2.77988 8.97969 2.37128 8.36901 2.09125C7.75833 1.81122 7.09438 1.66638 6.42256 1.66661Z" fill="white"/>
</svg>
